<svg width="36" height="36" viewBox="0 0 36 36" fill="none" xmlns="http://www.w3.org/2000/svg">
<g clip-path="url(#clip0_1668_4057)">
<path d="M23.7061 34.3262C32.8926 31.0007 37.644 20.8577 34.3185 11.6711C30.993 2.48461 20.85 -2.26672 11.6635 1.05876C2.47695 4.38424 -2.27438 14.5272 1.0511 23.7138C4.37658 32.9003 14.5196 37.6516 23.7061 34.3262Z" fill="#FFA98F"/>
<path fill-rule="evenodd" clip-rule="evenodd" d="M24.9781 24.6411C25.202 24.8661 25.426 25.091 25.65 25.3159C26.0345 25.7026 26.1058 26.1565 25.8468 26.5598C25.6943 26.7974 25.4568 26.9156 25.1947 27.0005H24.8305C24.5131 26.9055 24.2892 26.6899 24.0665 26.4647C23.4186 25.8116 22.7696 25.1598 22.1205 24.508C21.4031 23.7875 20.6856 23.067 19.9699 22.3448C19.8733 22.2473 19.8155 22.2307 19.6918 22.3103C18.0665 23.3528 16.2787 23.7222 14.3562 23.4431C12.9074 23.2328 11.634 22.6346 10.5408 21.6919C9.20457 20.5396 8.3802 19.1057 8.09783 17.3991C7.86221 15.9783 8.05169 14.6014 8.67181 13.2868C9.25132 12.0602 10.1138 11.0587 11.2605 10.2925C12.2516 9.63076 13.3454 9.21437 14.5457 9.06468C15.8542 8.90133 17.124 9.04389 18.3408 9.53216C20.1058 10.239 21.4248 11.4193 22.2799 13.0742C23.0169 14.5004 23.2175 16.0038 22.9314 17.5642C22.7136 18.7528 22.211 19.8274 21.4217 20.7683C21.3042 20.9091 21.3221 20.9791 21.4451 21.1015C22.626 22.2786 23.802 23.4599 24.9781 24.6411Z" fill="white"/>
</g>
<defs>
<clipPath id="clip0_1668_4057">
<rect width="35.38" height="35.38" fill="white"/>
</clipPath>
</defs>
</svg>
