<?xml version="1.0" encoding="utf-8"?>
<!-- Generator: Adobe Illustrator 26.1.0, SVG Export Plug-In . SVG Version: 6.00 Build 0)  -->
<svg version="1.1" id="Layer_1" xmlns="http://www.w3.org/2000/svg" xmlns:xlink="http://www.w3.org/1999/xlink" x="0px" y="0px"
	 viewBox="0 0 20 20" style="enable-background:new 0 0 20 20;" xml:space="preserve">
<style type="text/css">
	.st0{fill:#FEFEFE;}
	.st1{fill:#252525;}
	.st2{fill:#3D3D3D;}
	.st3{fill:#3B3B3B;}
	.st4{fill:#545454;}
	.st5{fill:#6E6E6E;}
	.st6{fill:#FFFFFF;}
</style>
<path class="st0" d="M-1132-398c-6.3,2.1-12.9,1.8-19.3,2.9c-32.6,5.6-61.7,17.8-84,43.3c-17.5,20.1-26.7,44-31.3,69.9
	c-1.7,9.6-2.9,19.4-3,29.2c0,2.5-0.9,3.4-3.2,4c-23.2,6.2-35.6,22.4-35.7,46.3c0,19.8,0,39.5,0,59.3c0,28.4,19,47.3,47.5,47.3
	c6.5,0,13,0.2,19.4-0.1c2.9-0.1,4.1,0.7,4.5,3.6c3,19.7,10.7,37.5,22.8,53.3c1.2,1.6,1.4,3.3,1.4,5.1c0,8.1-0.2,16.3,0.1,24.4
	c0.1,3.1-0.9,4.5-3.8,5.8c-40.4,17-80.7,34.4-121.1,51.4c-20.8,8.7-31.8,26.4-29.5,51.5c0.7,7.2,6.7,12.7,14,13.2
	c1.8,0.1,3.7,0,5.5,0c156.9,0,313.9,0,470.8,0.1c9.2,0,16-2.5,19.9-11.1c0,4,1.6,9.5-0.4,11.5c-2,2-7.5,0.4-11.5,0.4
	c-165,0-329.9,0-494.9,0.1c-3.7,0-4.6-0.8-4.6-4.6c0.1-167.4,0.1-334.9,0-502.3c0-3.7,0.8-4.6,4.6-4.6
	C-1286.5-397.9-1209.2-398-1132-398z"/>
<path class="st0" d="M1471.4,353.8c-2.6-15.6-11.3-26.9-25.6-33.2c-29.1-12.8-58.4-25-87.6-37.4c-12.3-5.3-24.6-10.6-37-15.7
	c-2.5-1-3.9-2.2-3.4-5c0.2-1,0.1-2,0-3c-1.2-14.8,0.6-28.2,10.1-40.9c8.3-11,11.8-24.7,13.9-38.4c0.5-3.1,1.3-4.6,5.2-4.6
	c10.3,0,20.6,1.2,30.8-0.8c20.1-4,35.3-21.8,35.6-42.3c0.3-22.4,0.3-44.8,0-67.3c-0.2-19.9-14.7-37.5-34.2-41.9
	c-3.6-0.8-4.5-2.3-4.7-5.8c-1.5-31.1-8.1-60.8-26-86.9c-18.8-27.4-45.5-42.9-77.1-50.7c-10.6-2.6-21.4-4.4-32.4-5.1
	c-0.8,0-1.7,0.1-2-1c77,0,154.1,0,231.1-0.1c3.8,0,4.2,1.1,4.2,4.4c-0.1,158.7-0.1,317.4-0.1,476.1
	C1471.9,354.5,1471.6,354.4,1471.4,353.8z"/>
<path class="st1" d="M-605-338.5c-2.3,1.5-4.7,1.7-7,0C-609.7-338.5-607.3-338.5-605-338.5z"/>
<path class="st2" d="M-345.8,141.8c0.3,0.1,0.6,0.2,0.9,0.2c0,1.7,0,3.3,0,5C-346.3,145.4-346.1,143.6-345.8,141.8z"/>
<path class="st3" d="M-588-337.6c-0.9,0.1-1.6,0-2-0.9c0.7,0,1.3,0,2,0c0.3,0.2,0.4,0.4,0.3,0.6C-587.8-337.7-587.9-337.6-588-337.6
	z"/>
<path class="st4" d="M-588-337.6c0-0.3-0.1-0.6-0.1-0.9c0.7,0,1.3,0,2,0c0.3,0.2,0.4,0.3,0.3,0.5c-0.1,0.2-0.2,0.3-0.3,0.3
	C-586.7-337.6-587.4-337.6-588-337.6z"/>
<path class="st5" d="M-586-337.6c0-0.3,0-0.6,0-0.8c0.7,0,1.3,0,2,0C-584.4-337.3-585.2-337.5-586-337.6z"/>
<path class="st6" d="M19.6,18.5c-0.1-0.6-0.4-1.1-1-1.3c-1.5-0.7-3-1.3-4.6-1.9c-0.1-0.1-0.2-0.1-0.2-0.3c0-0.2,0-0.5,0-0.7
	c0-0.1,0-0.2,0.1-0.3c0.4-0.6,0.7-1.2,0.8-1.9c0-0.1,0.1-0.2,0.2-0.2c0.2,0,0.5,0,0.7,0c1,0,1.7-0.8,1.7-1.8c0-0.8,0-1.5,0-2.3
	c0-0.9-0.4-1.5-1.3-1.8C16,5.9,16,5.9,16,5.8c0-0.3,0-0.5-0.1-0.8c-0.1-0.9-0.4-1.8-1-2.6c-0.8-1.1-1.9-1.7-3.2-1.9
	c-0.3-0.1-0.6-0.1-1-0.1c0,0-0.1,0-0.1,0c0,0-0.1,0-0.1,0c0,0,0,0-0.1,0c0,0-0.1,0-0.1,0c-0.2,0-0.4,0-0.6,0c-0.1,0-0.2,0-0.3,0
	c-0.1,0-0.2,0-0.3,0c0,0,0,0-0.1,0c-0.7,0-1.3,0.1-1.9,0.4c-1,0.4-1.8,1-2.4,1.9C4.3,3.6,4.1,4.6,4,5.7C4,5.8,4,5.9,3.8,6
	C3,6.2,2.6,6.9,2.6,7.7c0,0.8,0,1.6,0,2.4c0,1,0.8,1.8,1.7,1.8c0.2,0,0.5,0,0.7,0c0.2,0,0.2,0,0.3,0.2c0.1,0.5,0.2,1,0.5,1.4
	c0.3,0.4,0.4,0.9,0.4,1.4c0,0.3,0,0.3-0.3,0.5c-1.5,0.6-3,1.3-4.4,1.9c-0.6,0.3-0.9,0.7-1,1.4c0,0.1,0,0.3,0,0.4
	c0,0.4,0.2,0.6,0.6,0.6c6,0,12,0,18,0c0.4,0,0.5-0.1,0.6-0.4c0-0.2,0-0.3,0-0.5C19.6,18.6,19.6,18.5,19.6,18.5z M14.9,7.1
	c0.3,0,0.5,0,0.8,0c0.3,0,0.6,0.2,0.6,0.6c0,0.8,0,1.6,0,2.4c0,0.3-0.2,0.6-0.6,0.6c-0.3,0-0.5,0-0.8,0c-0.1,0-0.1,0-0.1-0.1
	c0-0.5,0-1.1,0-1.6c0-0.5,0-1.1,0-1.6C14.8,7.1,14.8,7.1,14.9,7.1z M5.1,10.6c-0.3,0-0.5,0-0.8,0c-0.3,0-0.6-0.2-0.6-0.6
	c0-0.8,0-1.6,0-2.4c0-0.3,0.2-0.5,0.5-0.5c0.3,0,0.6,0,0.9,0c0.1,0,0.1,0.1,0.1,0.1c0,0.5,0,1.1,0,1.6c0,0.5,0,1.1,0,1.6
	C5.3,10.6,5.2,10.6,5.1,10.6z M6.1,4.3c-0.3,0.4-0.5,1-0.7,1.5c0,0,0,0.1,0,0.1C5.4,6,5.3,6,5.3,6c-0.1,0-0.1,0-0.1-0.1
	C5.3,4,6,2.3,8.3,1.7c0.6-0.1,1.2-0.2,1.9-0.2c0.6,0,1.4,0.1,2.1,0.4c1.3,0.5,2.1,1.5,2.4,2.8c0.1,0.4,0.1,0.8,0.2,1.2
	c0,0,0,0.1-0.1,0.1c-0.1,0-0.1,0-0.1-0.1c-0.1-0.4-0.3-0.8-0.5-1.2c-0.3-0.6-0.7-1-1.4-1.1c-0.5-0.1-1,0-1.4,0.1
	C11,3.8,10.7,3.9,10.4,4c-0.3,0.1-0.6,0.1-0.8,0C9.1,3.8,8.6,3.6,8.1,3.5C7.3,3.4,6.6,3.6,6.1,4.3z M1.6,18.5
	c0.1-0.1,0.2-0.2,0.3-0.3c1.4-0.6,2.8-1.2,4.2-1.8c0.1,0,0.1-0.1,0.2,0.1c0.1,0.7,0.4,1.4,0.9,2C5.3,18.5,3.5,18.5,1.6,18.5z
	 M7.2,13.4c-0.5-0.6-0.8-1.3-0.8-2.1c0-1.5,0-3.1,0-4.6C6.4,6,6.6,5.4,7,4.9c0.3-0.3,0.6-0.4,1-0.3c0.4,0.1,0.8,0.3,1.2,0.4
	c0.6,0.2,1.2,0.2,1.7,0c0.4-0.2,0.8-0.3,1.2-0.4C12.5,4.6,12.8,4.7,13,5c0.2,0.3,0.3,0.6,0.4,0.9c0.2,0.4,0.2,0.9,0.2,1.3
	c0,1.2,0,2.4,0,3.6c0,0.1,0,0.2-0.1,0.3c-0.3,0.2-0.6,0.4-0.9,0.6c-0.4,0.3-0.8,0.4-1.2,0.4c-0.3,0-0.6,0-0.9,0
	c-0.3,0-0.5,0.2-0.6,0.5c0,0.3,0.1,0.5,0.4,0.6c0,0,0.1,0,0.1,0c0.7,0,1.4,0.1,2.1-0.1c0.3-0.1,0.6-0.3,0.9-0.5
	c-0.3,0.7-0.8,1.3-1.4,1.6C10.4,15,8.3,14.7,7.2,13.4z M12.3,17.2c-0.4,0.8-1.2,1.2-2.1,1.3c-0.4,0-0.7,0-1-0.1
	c-1-0.2-1.5-0.9-1.7-1.9c-0.1-0.5-0.1-1-0.1-1.5c0.8,0.5,1.7,0.7,2.7,0.7c0.9,0,1.8-0.2,2.7-0.7C12.7,15.8,12.7,16.5,12.3,17.2z
	 M12.8,18.4c0.5-0.6,0.8-1.3,0.9-2.1c0.4,0.2,0.9,0.4,1.3,0.5c1,0.4,2,0.9,3.1,1.3c0.1,0.1,0.2,0.1,0.3,0.2
	C18.2,18.5,13,18.5,12.8,18.4z"/>
</svg>
